<svg xmlns="http://www.w3.org/2000/svg" version="1.1" xmlns:xlink="http://www.w3.org/1999/xlink" xmlns:svgjs="http://svgjs.dev/svgjs" width="2000" height="919" viewBox="0 0 2000 919"><g transform="matrix(1,0,0,1,-1.2121212121213603,-0.6509746251600177)"><svg viewBox="0 0 396 182" data-background-color="#ffffff" preserveAspectRatio="xMidYMid meet" height="919" width="2000" xmlns="http://www.w3.org/2000/svg" xmlns:xlink="http://www.w3.org/1999/xlink"><g id="tight-bounds" transform="matrix(1,0,0,1,0.24000000000003752,0.1289198931220028)"><svg viewBox="0 0 395.5199999999999 181.742160213756" height="181.742160213756" width="395.5199999999999"><g><svg viewBox="0 0 395.5199999999999 181.742160213756" height="181.742160213756" width="395.5199999999999"><g transform="matrix(1,0,0,1,0,111.10749650601608)"><svg viewBox="0 0 395.5199999999999 70.63466370773992" height="70.63466370773992" width="395.5199999999999"><g id="textblocktransform"><svg viewBox="0 0 395.5199999999999 70.63466370773992" height="70.63466370773992" width="395.5199999999999" id="textblock"><g><svg viewBox="0 0 395.5199999999999 57.14427244582042" height="57.14427244582042" width="395.5199999999999"><g transform="matrix(1,0,0,1,0,0)"><svg width="395.5199999999999" viewBox="1.9 -41.5 290.68 42" height="57.14427244582042" data-palette-color="#1f55b3"><path d="M21.45 0L1.9 0 1.9-1.9Q3.8-1.95 4.98-2.18 6.15-2.4 6.8-3.03 7.45-3.65 7.68-4.73 7.9-5.8 7.9-7.6L7.9-7.6 7.9-30.9Q7.9-32.65 7.73-33.73 7.55-34.8 7.03-35.43 6.5-36.05 5.5-36.27 4.5-36.5 2.9-36.6L2.9-36.6 2.9-38.5 20.45-38.5Q24.95-38.5 28.78-37 32.6-35.5 35.38-32.85 38.15-30.2 39.7-26.55 41.25-22.9 41.25-18.6L41.25-18.6Q41.25-14.5 39.8-11.08 38.35-7.65 35.73-5.2 33.1-2.75 29.45-1.38 25.8 0 21.45 0L21.45 0ZM20.35-36.05L14-36.05Q13.15-36.05 13.15-35.2L13.15-35.2 13.15-8.15Q13.15-2.45 20.6-2.45L20.6-2.45Q27.45-2.45 31.1-6.53 34.75-10.6 34.75-18.5L34.75-18.5Q34.75-22.65 33.75-25.9 32.75-29.15 30.88-31.4 29-33.65 26.35-34.85 23.7-36.05 20.35-36.05L20.35-36.05ZM68.75-6.05L70.3-4.65Q66.05 0.5 59.75 0.5L59.75 0.5Q56.8 0.5 54.4-0.48 52-1.45 50.27-3.23 48.55-5 47.6-7.48 46.65-9.95 46.65-12.95L46.65-12.95Q46.65-16 47.65-18.6 48.65-21.2 50.47-23.05 52.3-24.9 54.82-25.95 57.35-27 60.35-27L60.35-27Q65.2-27 67.85-24.38 70.5-21.75 70.5-16.85L70.5-16.85Q70.5-16.15 70.22-16 69.95-15.85 68.95-15.85L68.95-15.85 52.5-15.85Q52.4-15.45 52.35-14.88 52.3-14.3 52.3-13.6L52.3-13.6Q52.3-11 52.92-8.88 53.55-6.75 54.72-5.25 55.9-3.75 57.52-2.93 59.15-2.1 61.15-2.1L61.15-2.1Q63.25-2.1 65.05-3.03 66.85-3.95 68.75-6.05L68.75-6.05ZM52.85-18.15L62.05-18.15Q63.05-18.15 63.65-18.2 64.25-18.25 64.55-18.4 64.85-18.55 64.95-18.82 65.05-19.1 65.05-19.55L65.05-19.55Q65.05-21.85 63.57-23.23 62.1-24.6 59.55-24.6L59.55-24.6Q54.15-24.6 52.85-18.15L52.85-18.15ZM96.65-5.6L98.15-4.15Q96.35-1.95 93.5-0.73 90.65 0.5 87.35 0.5L87.35 0.5Q84.7 0.5 82.47-0.48 80.25-1.45 78.65-3.23 77.05-5 76.17-7.5 75.3-10 75.3-13.05L75.3-13.05Q75.3-16.25 76.3-18.82 77.3-21.4 79.12-23.23 80.95-25.05 83.52-26.03 86.1-27 89.2-27L89.2-27Q91.15-27 92.75-26.68 94.35-26.35 95.52-25.78 96.7-25.2 97.35-24.38 98-23.55 98-22.6L98-22.6Q98-21.6 97.35-21.05 96.7-20.5 95.55-20.5L95.55-20.5Q94.65-20.5 94.05-20.88 93.45-21.25 92.5-22.55L92.5-22.55Q91.5-23.7 90.57-24.18 89.65-24.65 88.2-24.65L88.2-24.65Q84.65-24.65 82.82-21.9 81-19.15 81-13.8L81-13.8Q81-8.05 83.02-5.08 85.05-2.1 88.95-2.1L88.95-2.1Q91.05-2.1 92.9-2.93 94.75-3.75 96.65-5.6L96.65-5.6ZM115.89-27L115.89-27Q118.74-27 121.29-25.98 123.84-24.95 125.77-23.15 127.69-21.35 128.82-18.88 129.94-16.4 129.94-13.45L129.94-13.45Q129.94-10.4 128.82-7.85 127.69-5.3 125.77-3.45 123.84-1.6 121.29-0.55 118.74 0.5 115.89 0.5L115.89 0.5Q113.09 0.5 110.57-0.53 108.04-1.55 106.14-3.4 104.24-5.25 103.14-7.83 102.04-10.4 102.04-13.45L102.04-13.45Q102.04-16.4 103.14-18.9 104.24-21.4 106.14-23.2 108.04-25 110.57-26 113.09-27 115.89-27ZM115.89-24.6L115.89-24.6Q114.04-24.6 112.52-23.8 110.99-23 109.92-21.53 108.84-20.05 108.27-17.98 107.69-15.9 107.69-13.4L107.69-13.4Q107.69-10.8 108.27-8.7 108.84-6.6 109.92-5.13 110.99-3.65 112.49-2.85 113.99-2.05 115.89-2.05L115.89-2.05Q117.79-2.05 119.34-2.85 120.89-3.65 121.99-5.15 123.09-6.65 123.69-8.75 124.29-10.85 124.29-13.4L124.29-13.4Q124.29-15.9 123.69-17.95 123.09-20 121.99-21.48 120.89-22.95 119.34-23.78 117.79-24.6 115.89-24.6ZM143.44-9.65L143.44-7.95Q143.44-5.9 143.54-4.7 143.64-3.5 144.07-2.88 144.49-2.25 145.29-2.05 146.09-1.85 147.54-1.75L147.54-1.75 147.54 0 134.24 0 134.24-1.75Q135.69-1.8 136.54-2.02 137.39-2.25 137.84-2.85 138.29-3.45 138.42-4.58 138.54-5.7 138.54-7.6L138.54-7.6 138.54-13.45Q138.54-16.85 138.47-18.75 138.39-20.65 137.97-21.55 137.54-22.45 136.64-22.63 135.74-22.8 134.14-22.8L134.14-22.8 134.14-24.55 142.89-26.45 143.59-20.25 143.79-20.25Q144.44-21.75 145.42-23 146.39-24.25 147.54-25.13 148.69-26 149.94-26.5 151.19-27 152.49-27L152.49-27Q154.09-27 155.02-26.23 155.94-25.45 155.94-24.15L155.94-24.15Q155.94-22.95 155.19-22.28 154.44-21.6 153.04-21.6L153.04-21.6Q152.24-21.6 151.69-21.8 151.14-22 150.72-22.23 150.29-22.45 149.92-22.65 149.54-22.85 149.09-22.85L149.09-22.85Q147.74-22.85 146.39-21.13 145.04-19.4 144.29-16.75L144.29-16.75Q143.89-15.3 143.67-13.48 143.44-11.65 143.44-9.65L143.44-9.65ZM182.24-18.15L182.24-7.95Q182.24-6.05 182.46-4.88 182.69-3.7 183.44-3.08 184.19-2.45 185.56-2.2 186.94-1.95 189.19-1.9L189.19-1.9 189.19 0 171.49 0 171.49-1.9Q173.24-1.95 174.31-2.2 175.39-2.45 175.99-3.05 176.59-3.65 176.79-4.75 176.99-5.85 176.99-7.6L176.99-7.6 176.99-30.9Q176.99-32.65 176.81-33.73 176.64-34.8 176.11-35.43 175.59-36.05 174.59-36.27 173.59-36.5 171.99-36.6L171.99-36.6 171.99-38.5 200.89-38.5 201.44-28.95 199.69-28.95Q199.39-31.1 198.74-32.48 198.09-33.85 196.91-34.65 195.74-35.45 193.94-35.77 192.14-36.1 189.44-36.1L189.44-36.1 183.09-36.1Q182.24-36.1 182.24-35.25L182.24-35.25 182.24-20.15Q184.64-20.15 186.36-20.43 188.09-20.7 189.21-21.4 190.34-22.1 190.94-23.3 191.54-24.5 191.69-26.4L191.69-26.4 193.44-26.4 193.44-11.75 191.69-11.75Q191.44-13.65 190.89-14.9 190.34-16.15 189.26-16.85 188.19-17.55 186.49-17.85 184.79-18.15 182.24-18.15L182.24-18.15ZM213.18-41.5L213.18-7.8Q213.18-5.9 213.33-4.75 213.48-3.6 213.96-2.95 214.43-2.3 215.31-2.05 216.18-1.8 217.63-1.75L217.63-1.75 217.63 0 203.83 0 203.83-1.75Q205.33-1.8 206.23-2.08 207.13-2.35 207.66-2.95 208.18-3.55 208.36-4.63 208.53-5.7 208.53-7.45L208.53-7.45 208.53-29Q208.53-31.7 208.46-33.52 208.38-35.35 208.23-36L208.23-36Q207.98-37.15 207.06-37.55 206.13-37.95 203.73-37.95L203.73-37.95 203.73-39.65 213.18-41.5ZM235.23-27L235.23-27Q238.08-27 240.63-25.98 243.18-24.95 245.11-23.15 247.03-21.35 248.16-18.88 249.28-16.4 249.28-13.45L249.28-13.45Q249.28-10.4 248.16-7.85 247.03-5.3 245.11-3.45 243.18-1.6 240.63-0.55 238.08 0.5 235.23 0.5L235.23 0.5Q232.43 0.5 229.91-0.53 227.38-1.55 225.48-3.4 223.58-5.25 222.48-7.83 221.38-10.4 221.38-13.45L221.38-13.45Q221.38-16.4 222.48-18.9 223.58-21.4 225.48-23.2 227.38-25 229.91-26 232.43-27 235.23-27ZM235.23-24.6L235.23-24.6Q233.38-24.6 231.86-23.8 230.33-23 229.26-21.53 228.18-20.05 227.61-17.98 227.03-15.9 227.03-13.4L227.03-13.4Q227.03-10.8 227.61-8.7 228.18-6.6 229.26-5.13 230.33-3.65 231.83-2.85 233.33-2.05 235.23-2.05L235.23-2.05Q237.13-2.05 238.68-2.85 240.23-3.65 241.33-5.15 242.43-6.65 243.03-8.75 243.63-10.85 243.63-13.4L243.63-13.4Q243.63-15.9 243.03-17.95 242.43-20 241.33-21.48 240.23-22.95 238.68-23.78 237.13-24.6 235.23-24.6ZM271.93-17.95L264.58 0.5 262.73 0.5 256.23-20.3Q255.78-21.7 255.38-22.55 254.98-23.4 254.43-23.9 253.88-24.4 253.13-24.58 252.38-24.75 251.28-24.75L251.28-24.75 251.28-26.5 264.53-26.5 264.53-24.75Q262.58-24.75 261.78-24.3 260.98-23.85 260.98-22.75L260.98-22.75Q260.98-22.25 261.13-21.58 261.28-20.9 261.53-19.9L261.53-19.9 264.93-7.95 265.13-7.95 272.48-26.5 274.03-26.5 280.68-7.95 280.88-7.95 283.88-16.05Q284.48-17.7 284.88-18.82 285.28-19.95 285.5-20.73 285.73-21.5 285.83-22 285.93-22.5 285.93-22.95L285.93-22.95Q285.93-24.05 285.28-24.4 284.63-24.75 282.58-24.75L282.58-24.75 282.58-26.5 292.58-26.5 292.58-24.75Q291.83-24.75 291.3-24.53 290.78-24.3 290.25-23.65 289.73-23 289.18-21.8 288.63-20.6 287.83-18.65L287.83-18.65 280.08 0.5 278.23 0.5 272.13-17.95 271.93-17.95Z" opacity="1" transform="matrix(1,0,0,1,0,0)" fill="#1f55b3" class="wordmark-text-0" data-fill-palette-color="primary" id="text-0"></path></svg></g></svg></g><g transform="matrix(1,0,0,1,69.21599999999998,70.63466370773992)"><svg viewBox="0 0 257.08799999999997 0" height="0" width="257.08799999999997"><g transform="matrix(1,0,0,1,0,0)"><svg width="257.08799999999997" viewBox="0 0 0 0" height="0" data-palette-color="#ff585f"><path d="M0 0" opacity="1" transform="matrix(1,0,0,1,0,0)" fill="#ff585f" class="slogan-text-1" data-fill-palette-color="secondary" id="text-1"></path></svg></g></svg></g></svg></g></svg></g><g transform="matrix(1,0,0,1,148.9514473779517,0)"><svg viewBox="0 0 97.61710524409656 97.61710524409658" height="97.61710524409658" width="97.61710524409656"><g><svg></svg></g><g id="icon-0"><svg viewBox="0 0 97.61710524409656 97.61710524409658" height="97.61710524409658" width="97.61710524409656"><g><path transform="scale(0.97617,0.97617)" d="M30 100c-16.569 0-30-13.431-30-30v-40c0-16.569 13.431-30 30-30h40c16.569 0 30 13.431 30 30v40c0 16.569-13.431 30-30 30z" fill="#596aff" fill-rule="nonzero" stroke="none" stroke-width="1" stroke-linecap="butt" stroke-linejoin="miter" stroke-miterlimit="10" stroke-dasharray="" stroke-dashoffset="0" font-family="none" font-weight="none" font-size="none" text-anchor="none" style="mix-blend-mode: normal" data-fill-palette-color="accent"></path></g><g transform="matrix(1,0,0,1,19.52342104881931,25.255481169309665)"><svg viewBox="0 0 58.57026314645795 47.10614290547725" height="47.10614290547725" width="58.57026314645795"><g><svg xmlns="http://www.w3.org/2000/svg" xmlns:xlink="http://www.w3.org/1999/xlink" version="1.1" x="0" y="0" viewBox="0 9.786 100.00034525290005 80.42699999999999" enable-background="new 0 0 100 100" xml:space="preserve" id="dxe-0" width="58.57026314645795" height="47.10614290547725" class="icon-dxe-0" data-fill-palette-color="quaternary"><path d="M49.942 52.994L90.595 51.529C88.068 47.352 87.436 43.698 82.606 43.068 75.377 42.128 68.148 41.185 60.918 40.242L18.843 34.762C20.101 36.792 39.724 53.361 49.942 52.994" fill="#ffffff" data-fill-palette-color="quaternary"></path><path d="M0 9.786C4.391 17.043 26.615 32.858 32.953 33.672 50.283 35.903 67.61 38.132 84.939 40.36 81.546 34.753 80.759 31.01 74.627 29.401L47.91 22.378C31.94 18.182 15.97 13.984 0 9.786" fill="#ffffff" data-fill-palette-color="quaternary"></path><path d="M63.108 66.207L94.349 59.547C92.321 56.201 92.315 54.188 88.522 54.358 82.364 54.631 76.208 54.907 70.051 55.18 58.708 55.686 47.365 56.194 36.023 56.698 37.298 58.064 54.94 67.947 63.108 66.207" fill="#ffffff" data-fill-palette-color="quaternary"></path><path d="M87.682 90.213C93.407 86.494 94.944 82.492 98.201 76.406 101.852 69.582 99.458 68.562 95.38 61.81 94.963 61.122 89.538 62.042 88.927 62.714 88.182 63.532 88.679 68.169 88.633 69.21z" fill="#ffffff" data-fill-palette-color="quaternary"></path><path d="M86.35 63.447C82.555 64.256 77.746 63.638 76.778 67.676L72.658 84.887C81.904 82.678 86.028 71.582 86.35 63.447" fill="#ffffff" data-fill-palette-color="quaternary"></path><path d="M74.666 66.121C65.518 68.074 65.71 70.732 61.787 79.301 68.007 78.711 73.811 71.941 74.666 66.121" fill="#ffffff" data-fill-palette-color="quaternary"></path></svg></g></svg></g></svg></g></svg></g><g></g></svg></g><defs></defs></svg><rect width="395.5199999999999" height="181.742160213756" fill="none" stroke="none" visibility="hidden"></rect></g></svg></g></svg>